<?xml version="1.0"?><svg xmlns="http://www.w3.org/2000/svg" id="Layer_1" data-name="Layer 1" viewBox="0 0 24 24"><defs><style>
      .cls-1 {
        fill: #fff;
      }
    </style></defs><path d="M17.81,0H6.19C2.77,0,0,2.77,0,6.19v11.61c0,3.42,2.77,6.19,6.19,6.19h11.61c3.42,0,6.19-2.77,6.19-6.19V6.19c0-3.42-2.77-6.19-6.19-6.19ZM16.44,6.08h-2.84c-.37,0-.67.35-.67.79v3.16h3.51l-.34,3.16h-3.18v7.89h-2.69v-7.89h-2.69v-3.16h2.69v-3.95c0-1.74,1.2-3.16,2.69-3.16h3.51v3.16Z"/><path class="cls-1" d="M10.24,6.08v3.95h-2.69v3.16h2.69v7.89h2.69v-7.89h3.18l.34-3.16h-3.51v-3.16c0-.44.3-.79.67-.79h2.84v-3.16h-3.51c-1.48,0-2.69,1.41-2.69,3.16Z"/></svg>